<svg width="368" height="118" viewBox="0 0 368 118" fill="none" xmlns="http://www.w3.org/2000/svg">
<path d="M22.368 56.04H54.624V68.52H22.368V56.04ZM23.52 93H7.968V25.8H58.752V38.28H23.52V93ZM68.2245 93V21.768H83.2005V93H68.2245ZM118.892 93.768C114.604 93.768 110.764 92.936 107.372 91.272C104.044 89.608 101.452 87.08 99.5955 83.688C97.7395 80.232 96.8115 75.848 96.8115 70.536V41.352H111.788V68.328C111.788 72.616 112.684 75.784 114.476 77.832C116.332 79.816 118.924 80.808 122.252 80.808C124.556 80.808 126.604 80.328 128.396 79.368C130.188 78.344 131.596 76.808 132.62 74.76C133.644 72.648 134.156 70.024 134.156 66.888V41.352H149.132V93H134.924V78.792L137.516 82.92C135.788 86.504 133.228 89.224 129.836 91.08C126.508 92.872 122.86 93.768 118.892 93.768ZM303.436 93V82.92L302.476 80.712V62.664C302.476 59.464 301.484 56.968 299.5 55.176C297.58 53.384 294.604 52.488 290.572 52.488C287.82 52.488 285.1 52.936 282.412 53.832C279.788 54.664 277.548 55.816 275.692 57.288L270.316 46.824C273.132 44.84 276.524 43.304 280.492 42.216C284.46 41.128 288.492 40.584 292.588 40.584C300.46 40.584 306.572 42.44 310.924 46.152C315.276 49.864 317.452 55.656 317.452 63.528V93H303.436ZM287.692 93.768C283.66 93.768 280.204 93.096 277.324 91.752C274.444 90.344 272.236 88.456 270.7 86.088C269.164 83.72 268.396 81.064 268.396 78.12C268.396 75.048 269.132 72.36 270.604 70.056C272.14 67.752 274.54 65.96 277.804 64.68C281.068 63.336 285.324 62.664 290.572 62.664H304.3V71.4H292.204C288.684 71.4 286.252 71.976 284.908 73.128C283.628 74.28 282.988 75.72 282.988 77.448C282.988 79.368 283.724 80.904 285.196 82.056C286.732 83.144 288.812 83.688 291.436 83.688C293.932 83.688 296.172 83.112 298.156 81.96C300.14 80.744 301.58 78.984 302.476 76.68L304.78 83.592C303.692 86.92 301.708 89.448 298.828 91.176C295.948 92.904 292.236 93.768 287.692 93.768ZM331.006 93V41.352H345.31V55.944L343.294 51.72C344.83 48.072 347.294 45.32 350.686 43.464C354.078 41.544 358.206 40.584 363.07 40.584V54.408C362.43 54.344 361.854 54.312 361.342 54.312C360.83 54.248 360.286 54.216 359.71 54.216C355.614 54.216 352.286 55.4 349.726 57.768C347.23 60.072 345.982 63.688 345.982 68.616V93H331.006Z" fill="#FEFAFF"/>
<path d="M161.5 32.5H190.363" stroke="#F59A44" stroke-width="15"/>
<line x1="154" y1="35.6699" x2="168.431" y2="16.4281" stroke="#F59A44" stroke-width="10"/>
<path d="M255.863 85.5H227" stroke="#FF09A1" stroke-width="15"/>
<line y1="-5" x2="24.0523" y2="-5" transform="matrix(-0.6 -0.8 -0.8 0.6 259.626 91.3699)" stroke="#FF09A1" stroke-width="10"/>
<path d="M225.278 25.7638H243.317L194.01 93.1102H175.971L225.278 25.7638Z" fill="url(#paint0_linear_43_62)"/>
<path d="M193.946 25H176L225.054 93H243L193.946 25Z" fill="url(#paint1_linear_43_62)"/>
<line x1="263.626" y1="82.7935" x2="249.194" y2="102.035" stroke="#FF09A1" stroke-width="10"/>
<line y1="-5" x2="24.0523" y2="-5" transform="matrix(0.6 0.8 0.8 -0.6 158 27.0936)" stroke="#F59A44" stroke-width="10"/>
<defs>
<linearGradient id="paint0_linear_43_62" x1="209.644" y1="25.7638" x2="209.644" y2="93.1102" gradientUnits="userSpaceOnUse">
<stop offset="0.25" stop-color="#B958F5"/>
<stop offset="0.745192" stop-color="#3C98F5"/>
<stop offset="1" stop-color="#53FFAD"/>
</linearGradient>
<linearGradient id="paint1_linear_43_62" x1="209.5" y1="25" x2="209.5" y2="93" gradientUnits="userSpaceOnUse">
<stop offset="0.225962" stop-color="#F59A44"/>
<stop offset="0.625" stop-color="#FF1D00"/>
<stop offset="1" stop-color="#FF09A1"/>
</linearGradient>
</defs>
</svg>
