<svg width="34" height="22" viewBox="0 0 34 22" fill="none" xmlns="http://www.w3.org/2000/svg">
<path d="M1.87802 21.9014C1.34592 21.9014 0.9002 21.7262 0.540871 21.3758C0.180291 21.0266 0 20.5934 0 20.0763C0 19.5592 0.180291 19.126 0.540871 18.7768C0.9002 18.4264 1.34592 18.2512 1.87802 18.2512H31.9264C32.4585 18.2512 32.9042 18.4264 33.2636 18.7768C33.6242 19.126 33.8044 19.5592 33.8044 20.0763C33.8044 20.5934 33.6242 21.0266 33.2636 21.3758C32.9042 21.7262 32.4585 21.9014 31.9264 21.9014H1.87802ZM1.87802 12.7758C1.34592 12.7758 0.9002 12.6006 0.540871 12.2502C0.180291 11.901 0 11.4678 0 10.9507C0 10.4336 0.180291 9.99982 0.540871 9.6494C0.9002 9.3002 1.34592 9.12559 1.87802 9.12559H31.9264C32.4585 9.12559 32.9042 9.3002 33.2636 9.6494C33.6242 9.99982 33.8044 10.4336 33.8044 10.9507C33.8044 11.4678 33.6242 11.901 33.2636 12.2502C32.9042 12.6006 32.4585 12.7758 31.9264 12.7758H1.87802ZM1.87802 3.65024C1.34592 3.65024 0.9002 3.47563 0.540871 3.12643C0.180291 2.77601 0 2.34224 0 1.82512C0 1.308 0.180291 0.874232 0.540871 0.523809C0.9002 0.174603 1.34592 0 1.87802 0H31.9264C32.4585 0 32.9042 0.174603 33.2636 0.523809C33.6242 0.874232 33.8044 1.308 33.8044 1.82512C33.8044 2.34224 33.6242 2.77601 33.2636 3.12643C32.9042 3.47563 32.4585 3.65024 31.9264 3.65024H1.87802Z" fill="#FEFAFF"/>
</svg>
