<svg width="683" height="512" viewBox="0 0 683 512" fill="none" xmlns="http://www.w3.org/2000/svg">
<path d="M32.5333 1.53333C20 4.6 8.9333 13.6667 3.59996 25.5333C-0.666702 34.6 -0.533369 50.7333 3.86663 59.5333C8.1333 68.2 15.8666 75.8 24.4 79.8L31.3333 83H341.333H651.333L658.267 79.8C666.8 75.8 674.533 68.2 678.8 59.5333C683.2 50.7333 683.333 34.6 679.067 25.5333C675.067 16.7333 667.6 9 658.933 4.73333L651.333 0.999996L344 0.733329C174.933 0.733329 34.8 0.999996 32.5333 1.53333Z" fill="white"/>
<path d="M30.6667 216.2C19.4667 219.667 9.33338 228.2 3.86672 239C1.33338 243.933 0.800049 247.133 0.800049 256.333C0.800049 265.933 1.33338 268.6 4.26672 274.333C8.40005 282.333 15.7334 289.533 24.0001 293.8L30.0001 297H341.333H652.667L659.333 293.4C674.133 285.533 682 272.733 682 256.333C682 239.933 674.133 227.133 659.333 219.267L652.667 215.667L343.333 215.4C173.2 215.267 32.5334 215.667 30.6667 216.2Z" fill="white"/>
<path d="M22.5333 434.066C-8.39999 450.067 -6.93333 492.6 25.2 508.6L31.3333 511.667H341.333H651.333L658.933 507.933C667.6 503.667 675.067 495.933 679.067 487.133C683.333 478.067 683.2 461.933 678.8 453.133C674.533 444.467 666.8 436.867 658.267 432.866L651.333 429.666H341.067H30.9333L22.5333 434.066Z" fill="white"/>
</svg>
